<svg width="519" height="624" viewBox="0 0 519 624" fill="none" xmlns="http://www.w3.org/2000/svg">
<g clip-path="url(#clip0_3_937)">
<circle cx="261.5" cy="271.5" r="242.5" fill="#F15C2E" stroke="#043365" stroke-width="12"/>
<path d="M62.0302 96.0239L114.521 44.7893C122.904 36.606 136.302 36.7682 144.486 45.1521L399.52 306.437C406.921 314.019 406.772 326.265 399.19 333.665L341.743 389.739C335.327 396.001 325.027 395.876 318.765 389.461L61.6675 125.989C53.4841 117.605 53.6463 104.207 62.0302 96.0239Z" fill="#E8AF4E"/>
<path d="M110.948 48.2763L88.2754 70.4068L371.56 360.635L396.712 336.085C405.679 327.332 405.853 312.926 397.102 303.887L147.972 48.7245C137.868 38.3722 121.301 38.1717 110.948 48.2763Z" fill="#FBD48E"/>
<path d="M63.0399 89.9847L108.386 45.7237C120.123 34.267 139.067 34.4964 150.524 46.2338L399.652 301.468C409.828 311.893 409.626 328.605 399.201 338.78L348.97 387.809C338.545 397.985 321.834 397.783 311.658 387.357L62.5298 132.123C51.0731 120.386 51.3025 101.441 63.0399 89.9847ZM394.149 333.532C401.731 326.132 401.878 314.03 394.477 306.449L145.348 51.2861C136.666 42.3919 122.332 42.2184 113.438 50.8998L68.0922 95.1608C59.198 103.842 59.0245 118.176 67.7059 127.071L316.834 382.305C324.235 389.887 336.336 390.034 343.918 382.633L394.149 333.532Z" fill="black"/>
<path d="M375.031 389.349L387.57 377.11L400.11 364.798L396.711 336.157L313.92 301.655L346.48 385.185L375.031 389.349Z" fill="#BD2526"/>
<path d="M387.57 377.11L313.92 301.655L396.711 336.157L400.11 364.798L387.57 377.11Z" fill="#9A0102"/>
<path d="M478.634 489.949L498.172 470.878C499.703 469.384 499.732 466.935 498.238 465.404L400.11 364.798L374.959 389.348L473.087 489.882C474.654 491.414 477.103 491.443 478.634 489.949Z" fill="#E8E8E8"/>
<path d="M422.53 387.784L397.425 412.288L404.52 419.557L429.625 395.052L422.53 387.784Z" fill="black"/>
<path d="M434.42 399.943L409.315 424.447L416.41 431.716L441.515 407.212L434.42 399.943Z" fill="black"/>
<path d="M447.004 412.873L421.899 437.377L428.994 444.646L454.098 420.142L447.004 412.873Z" fill="black"/>
<path d="M465.219 431.504L440.114 456.008L445.045 461.06L470.15 436.556L465.219 431.504Z" fill="black"/>
<path d="M369.917 389.287L400.244 359.685L497.661 459.49C502.358 464.301 502.264 472.009 497.454 476.633L484.477 489.299C479.665 493.996 471.958 493.903 467.333 489.092L369.917 389.287ZM400.048 369.985L380.145 389.411L472.51 484.04C474.36 485.935 477.457 485.973 479.425 484.123L492.401 471.457C494.297 469.607 494.334 466.509 492.485 464.542L400.048 369.985Z" fill="black"/>
<path d="M307.445 295.021L399.984 333.603L403.912 366.141L376.209 393.182L343.775 388.467L307.445 295.021ZM393.366 338.71L320.468 308.29L349.114 381.904L373.781 385.444L396.308 363.456L393.366 338.71Z" fill="black"/>
<path d="M510.956 474.131L481.576 502.808C478.441 505.868 473.399 505.807 470.267 502.671L465.713 498.006C462.653 494.871 462.714 489.828 465.849 486.697L495.229 458.019C498.364 454.96 503.407 455.021 506.538 458.156L511.093 462.822C514.152 465.957 514.091 470.999 510.956 474.131Z" fill="black" stroke="black" stroke-width="7" stroke-miterlimit="10"/>
<path d="M165.142 71.5105L87.5078 147.287L105.773 166L183.407 90.2231L165.142 71.5105Z" fill="#EAEAEA"/>
<path d="M165.114 71.5579L126.297 109.446L144.562 128.159L183.379 90.2705L165.114 71.5579Z" fill="white"/>
<path d="M195.224 102.391L117.59 178.167L135.855 196.88L213.489 121.103L195.224 102.391Z" fill="#EAEAEA"/>
<path d="M195.247 102.388L156.43 140.276L174.695 158.989L213.512 121.1L195.247 102.388Z" fill="white"/>
<path d="M223.689 131.549L146.055 207.326L164.32 226.039L241.954 150.262L223.689 131.549Z" fill="#EAEAEA"/>
<path d="M223.713 131.547L184.896 169.436L203.16 188.148L241.978 150.26L223.713 131.547Z" fill="white"/>
<path d="M459.87 95.1848L408.534 42.7946C400.335 34.4267 386.937 34.2906 378.569 42.4901L117.782 298.029C110.215 305.444 110.09 317.69 117.506 325.257L173.69 382.595C179.964 388.998 190.265 389.103 196.668 382.829L459.566 125.15C467.934 116.951 468.07 103.553 459.87 95.1848Z" fill="#E8AF4E"/>
<path d="M412.028 46.36L434.202 68.9896L144.528 352.835L119.93 327.731C111.16 318.781 111.306 304.375 120.257 295.533L375.004 45.9837C385.336 35.8591 401.904 36.0275 412.028 46.36Z" fill="#FBD48E"/>
<path d="M458.996 89.1246L414.647 43.8653C403.168 32.1503 384.223 31.9577 372.508 43.437L117.761 293.058C107.356 303.254 107.186 319.965 117.382 330.371L166.508 380.505C176.703 390.91 193.415 391.08 203.82 380.884L458.567 131.263C470.282 119.784 470.475 100.84 458.996 89.1246ZM122.549 325.236C115.134 317.669 115.257 305.567 122.824 298.152L377.571 48.6033C386.448 39.9047 400.782 40.0504 409.481 48.9276L453.829 94.1869C462.528 103.064 462.382 117.398 453.505 126.097L198.758 375.718C191.19 383.133 179.089 383.01 171.674 375.443L122.549 325.236Z" fill="black"/>
<path d="M140.419 381.465L128.156 368.949L115.893 356.362L119.929 327.803L203.467 295.154L169.055 377.938L140.419 381.465Z" fill="#BD2526"/>
<path d="M128.156 368.949L203.467 295.154L119.929 327.803L115.893 356.362L128.156 368.949Z" fill="#9A0102"/>
<path d="M34.603 479.732L15.4946 460.231C13.9973 458.703 14.0222 456.254 15.5503 454.756L115.893 356.362L140.491 381.465L40.1495 479.788C38.5494 481.284 36.1003 481.26 34.603 479.732Z" fill="#E8E8E8"/>
<path d="M92.9673 378.842L117.52 403.899L110.265 411.008L85.7127 385.951L92.9673 378.842Z" fill="black"/>
<path d="M80.8095 390.733L105.362 415.79L98.1075 422.899L73.5548 397.842L80.8095 390.733Z" fill="black"/>
<path d="M67.9412 403.38L92.4939 428.437L85.2392 435.545L60.6865 410.488L67.9412 403.38Z" fill="black"/>
<path d="M49.3158 421.6L73.8685 446.657L68.8263 451.598L44.2736 426.541L49.3158 421.6Z" fill="black"/>
<path d="M145.534 381.517L115.873 351.247L16.2588 448.856C11.4564 453.562 11.3781 461.269 16.0846 466L28.776 478.952C33.4818 483.754 41.1892 483.833 45.9196 479.126L145.534 381.517ZM115.84 361.548L135.305 381.413L40.8573 473.96C38.9654 475.814 35.8681 475.782 33.9423 473.89L21.2509 460.938C19.3971 459.046 19.4286 455.948 21.3212 454.023L115.84 361.548Z" fill="black"/>
<path d="M210.088 288.666L116.714 325.177L112.062 357.62L139.156 385.27L171.686 381.278L210.088 288.666ZM123.216 330.43L196.773 301.641L166.495 374.598L141.755 377.588L119.724 355.104L123.216 330.43Z" fill="black"/>
<path d="M2.64158 463.198L31.3755 492.522C34.4414 495.651 39.4836 495.702 42.6845 492.637L47.3414 488.073C50.4703 485.007 50.5215 479.965 47.4563 476.764L18.7225 447.44C15.6566 444.312 10.6143 444.26 7.41345 447.325L2.75653 451.889C-0.372333 454.955 -0.42358 459.997 2.64158 463.198Z" fill="black" stroke="black" stroke-width="7" stroke-miterlimit="10"/>
<path d="M357.331 68.3817L433.258 145.868L414.581 164.169L338.654 86.6828L357.331 68.3817Z" fill="#EAEAEA"/>
<path d="M357.358 68.4296L395.322 107.173L376.645 125.474L338.682 86.7307L357.358 68.4296Z" fill="white"/>
<path d="M326.569 98.5839L402.496 176.07L383.819 194.371L307.892 116.885L326.569 98.5839Z" fill="#EAEAEA"/>
<path d="M326.546 98.5805L364.509 137.323L345.833 155.625L307.869 116.882L326.546 98.5805Z" fill="white"/>
<path d="M297.462 127.101L373.389 204.587L354.712 222.888L278.786 145.402L297.462 127.101Z" fill="#EAEAEA"/>
<path d="M297.439 127.099L335.402 165.842L316.725 184.143L278.762 145.4L297.439 127.099Z" fill="white"/>
<path d="M259.4 108.8C229.421 108.8 205 84.3785 205 54.4C205 24.4215 229.421 0 259.4 0C289.378 0 313.8 24.4215 313.8 54.4C313.8 84.3785 289.451 108.8 259.4 108.8ZM259.4 4.02151C231.615 4.02151 209.094 26.615 209.094 54.3269C209.094 82.0387 231.688 104.632 259.4 104.632C287.112 104.632 309.705 82.0387 309.705 54.3269C309.705 26.615 287.185 4.02151 259.4 4.02151Z" fill="#043365" stroke="#043365" stroke-width="10" stroke-miterlimit="10"/>
<path d="M264.225 2.26651C264.225 2.85146 264.152 3.36328 264.152 3.94822C264.152 4.38693 263.787 4.7525 263.348 4.7525C263.348 4.7525 263.348 4.7525 263.275 4.7525C262.836 4.7525 262.471 4.31379 262.471 3.87508C262.471 3.29013 262.544 2.70521 262.544 2.12026C261.447 2.04715 260.423 2.04712 259.326 2.04712C259.18 2.04712 259.034 2.04712 258.888 2.04712C258.888 2.70518 258.815 3.29016 258.815 3.94822C258.815 4.38693 258.449 4.7525 258.01 4.7525C258.01 4.7525 258.01 4.7525 257.937 4.7525C257.498 4.7525 257.133 4.31379 257.133 3.87508C257.133 3.29013 257.206 2.70521 257.206 2.12026C255.89 2.19338 254.647 2.26647 253.331 2.41271C253.184 5.11809 253.038 7.89659 252.965 10.602C252.965 11.0407 252.6 11.4063 252.161 11.4063C251.722 11.4063 251.357 11.0407 251.357 10.602C251.43 7.96971 251.503 5.26436 251.649 2.6321C250.187 2.85146 248.797 3.07079 247.408 3.43638C246.969 11.7719 246.823 22.1546 247.481 33.8536C248.432 50.9633 250.918 67.3418 254.793 82.6235C256.987 91.0321 259.546 99.0751 262.617 106.753C265.688 106.533 268.686 106.094 271.61 105.436C271.464 105.071 271.318 104.632 271.172 104.267C271.025 103.828 271.245 103.389 271.683 103.243C272.122 103.097 272.561 103.316 272.707 103.755C272.853 104.193 273.073 104.632 273.219 105.144C274.316 104.851 275.412 104.486 276.436 104.12C276.436 103.755 276.582 103.389 276.948 103.243C277.314 103.097 277.679 103.243 277.898 103.535C297.64 96.0042 311.679 76.9203 311.679 54.5461C311.825 27.0536 290.914 4.67941 264.225 2.26651ZM270.587 78.5289C270.806 79.5525 271.098 80.6493 271.391 81.673C271.464 82.1117 271.245 82.5504 270.806 82.6235C270.733 82.6235 270.66 82.6235 270.587 82.6235C270.221 82.6235 269.855 82.4041 269.782 82.0385C269.49 81.0149 269.271 79.9181 268.978 78.8213C268.905 78.3826 269.124 77.9439 269.563 77.8708C270.002 77.7977 270.44 78.0902 270.587 78.5289ZM269.197 72.1676C269.417 73.1912 269.636 74.288 269.855 75.3848C269.929 75.8235 269.709 76.2622 269.27 76.3353C269.197 76.3353 269.124 76.3353 269.124 76.3353C268.759 76.3353 268.393 76.0428 268.32 75.6772C268.101 74.5805 267.881 73.5568 267.662 72.4601C267.589 72.0214 267.881 71.5826 268.32 71.5095C268.612 71.4364 269.051 71.7289 269.197 72.1676ZM267.954 65.7332C268.174 66.8299 268.32 67.8536 268.539 68.9504C268.612 69.3891 268.32 69.8278 267.881 69.9009C267.808 69.9009 267.808 69.9009 267.735 69.9009C267.369 69.9009 267.004 69.6084 266.931 69.2428C266.711 68.1461 266.492 67.1224 266.346 66.0256C266.273 65.5869 266.565 65.1482 267.004 65.0751C267.443 65.002 267.881 65.2945 267.954 65.7332ZM266.858 59.2988C267.004 60.3955 267.223 61.4192 267.369 62.516C267.443 62.9547 267.15 63.3934 266.711 63.4665C266.638 63.4665 266.638 63.4665 266.565 63.4665C266.2 63.4665 265.834 63.174 265.761 62.8084C265.615 61.7117 265.395 60.6149 265.249 59.5912C265.176 59.1525 265.468 58.7138 265.907 58.6407C266.419 58.5676 266.784 58.8601 266.858 59.2988ZM262.617 65.7332C262.836 66.8299 262.982 67.8536 263.202 68.9504C263.275 69.3891 262.982 69.8278 262.544 69.9009C262.471 69.9009 262.471 69.9009 262.397 69.9009C262.032 69.9009 261.666 69.6084 261.593 69.2428C261.374 68.1461 261.154 67.1224 261.008 66.0256C260.935 65.5869 261.228 65.1482 261.666 65.0751C262.105 65.002 262.544 65.2945 262.617 65.7332ZM262.178 20.2536C262.178 19.8149 262.544 19.4493 262.982 19.4493C263.421 19.4493 263.787 19.8149 263.787 20.2536C263.787 21.3504 263.787 22.4471 263.86 23.5439C263.86 23.9826 263.494 24.3482 263.055 24.3482C262.617 24.3482 262.251 23.9826 262.251 23.5439C262.251 22.4471 262.251 21.3504 262.178 20.2536ZM262.909 71.5095C263.348 71.4364 263.787 71.7289 263.86 72.1676C264.079 73.1912 264.298 74.288 264.518 75.3848C264.591 75.8235 264.372 76.2622 263.933 76.3353C263.86 76.3353 263.787 76.3353 263.787 76.3353C263.421 76.3353 263.055 76.0428 262.982 75.6772C262.763 74.5805 262.544 73.5568 262.324 72.4601C262.178 72.0214 262.471 71.5826 262.909 71.5095ZM264.298 77.9439C264.737 77.8708 265.176 78.0902 265.249 78.5289C265.468 79.5525 265.761 80.6493 266.053 81.673C266.126 82.1117 265.907 82.5504 265.468 82.6235C265.395 82.6235 265.322 82.6235 265.249 82.6235C264.883 82.6235 264.518 82.4041 264.445 82.0385C264.152 81.0149 263.933 79.9181 263.64 78.8213C263.567 78.4557 263.86 78.0171 264.298 77.9439ZM265.98 52.8643C266.126 53.9611 266.273 55.0579 266.419 56.0816C266.492 56.5203 266.2 56.959 265.761 57.0321C265.688 57.0321 265.688 57.0321 265.615 57.0321C265.249 57.0321 264.883 56.7396 264.81 56.3009C264.664 55.2041 264.518 54.1073 264.372 53.0106C264.298 52.5719 264.664 52.1331 265.103 52.1331C265.541 52.06 265.907 52.3525 265.98 52.8643ZM265.249 46.3568C265.322 47.4536 265.468 48.5503 265.615 49.574C265.688 50.0127 265.322 50.4514 264.883 50.4514H264.81C264.372 50.4514 264.079 50.159 264.006 49.7203C263.86 48.6235 263.787 47.5267 263.64 46.4299C263.567 45.9912 263.933 45.5525 264.372 45.5525C264.81 45.5525 265.176 45.9181 265.249 46.3568ZM264.957 43.0665C265.03 43.5052 264.664 43.9439 264.225 43.9439H264.152C263.714 43.9439 263.348 43.6515 263.348 43.2128C263.275 42.116 263.129 41.0192 263.055 39.9224C263.055 39.4837 263.348 39.1181 263.787 39.045C264.225 39.045 264.591 39.3375 264.664 39.7762C264.737 40.9461 264.81 42.0428 264.957 43.0665ZM264.225 33.3418C264.298 34.4386 264.372 35.5353 264.445 36.6321C264.445 37.0708 264.152 37.4364 263.714 37.5095C263.714 37.5095 263.714 37.5095 263.64 37.5095C263.202 37.5095 262.836 37.1439 262.836 36.7783C262.763 35.6815 262.69 34.5848 262.617 33.488C262.617 33.0493 262.909 32.6837 263.421 32.6106C263.86 32.5375 264.225 32.83 264.225 33.3418ZM263.275 30.9288C262.836 30.9288 262.471 30.5633 262.397 30.1246C262.324 29.0278 262.324 27.931 262.251 26.8342C262.251 26.3955 262.617 26.03 263.055 26.03C263.494 26.03 263.86 26.3955 263.86 26.8342C263.86 27.931 263.933 29.0278 264.006 30.1246C264.079 30.4902 263.787 30.8557 263.275 30.9288ZM262.397 7.0923C262.397 6.65359 262.836 6.28802 263.275 6.28802C263.714 6.28802 264.079 6.65357 264.079 7.1654C264.006 8.26217 264.006 9.35895 264.006 10.4557C264.006 10.8944 263.64 11.2601 263.202 11.2601C262.763 11.2601 262.397 10.8944 262.397 10.4557C262.324 9.28583 262.397 8.18907 262.397 7.0923ZM262.251 13.6729C262.251 13.2342 262.617 12.8687 263.055 12.8687C263.494 12.8687 263.86 13.2342 263.86 13.6729C263.86 14.7697 263.86 15.8665 263.86 16.9633C263.86 17.402 263.494 17.7676 263.055 17.7676C262.617 17.7676 262.251 17.402 262.251 16.9633C262.178 15.8665 262.251 14.7697 262.251 13.6729ZM259.911 46.3568C259.984 47.4536 260.131 48.5503 260.277 49.574C260.35 50.0127 259.984 50.4514 259.546 50.4514H259.473C259.034 50.4514 258.741 50.159 258.668 49.7203C258.522 48.6235 258.449 47.5267 258.303 46.4299C258.23 45.9912 258.595 45.5525 259.034 45.5525C259.473 45.5525 259.911 45.9181 259.911 46.3568ZM259.619 43.0665C259.692 43.5052 259.326 43.9439 258.888 43.9439H258.815C258.376 43.9439 258.01 43.6515 258.01 43.2128C257.937 42.116 257.791 41.0192 257.718 39.9224C257.718 39.4837 258.01 39.1181 258.449 39.045C258.888 39.045 259.253 39.3375 259.326 39.7762C259.4 40.9461 259.546 42.0428 259.619 43.0665ZM258.888 33.3418C258.961 34.4386 259.034 35.5353 259.107 36.6321C259.107 37.0708 258.815 37.4364 258.376 37.5095C258.376 37.5095 258.376 37.5095 258.303 37.5095C257.864 37.5095 257.498 37.1439 257.498 36.7783C257.425 35.6815 257.352 34.5848 257.279 33.488C257.279 33.0493 257.572 32.6837 258.083 32.6106C258.522 32.5375 258.888 32.83 258.888 33.3418ZM258.01 30.9288C258.01 30.9288 257.937 30.9288 258.01 30.9288C257.572 30.9288 257.206 30.5633 257.133 30.1246C257.06 29.0278 257.06 27.931 256.987 26.8342C256.987 26.3955 257.352 26.03 257.791 26.03C258.23 26.03 258.595 26.3955 258.595 26.8342C258.595 27.931 258.668 29.0278 258.741 30.1246C258.815 30.4902 258.449 30.8557 258.01 30.9288ZM256.914 23.5439C256.914 22.4471 256.914 21.3504 256.84 20.2536C256.84 19.8149 257.206 19.4493 257.645 19.4493C258.083 19.4493 258.449 19.8149 258.449 20.2536C258.449 21.3504 258.449 22.4471 258.522 23.5439C258.522 23.9826 258.157 24.3482 257.718 24.3482C257.279 24.3482 256.987 23.9826 256.914 23.5439ZM257.06 7.0923C257.06 6.65359 257.425 6.28802 257.937 6.28802C258.376 6.28802 258.741 6.65357 258.741 7.1654C258.668 8.26217 258.668 9.35895 258.668 10.4557C258.668 10.8944 258.303 11.2601 257.864 11.2601C257.425 11.2601 257.06 10.8944 257.06 10.4557C256.987 9.28583 257.06 8.18907 257.06 7.0923ZM256.914 13.6729C256.914 13.2342 257.279 12.8687 257.718 12.8687C258.157 12.8687 258.522 13.2342 258.522 13.6729C258.522 14.7697 258.522 15.8665 258.522 16.9633C258.522 17.402 258.157 17.7676 257.718 17.7676C257.279 17.7676 256.914 17.402 256.914 16.9633C256.914 15.8665 256.914 14.7697 256.914 13.6729ZM251.795 33.1224C251.576 29.3934 251.503 25.5912 251.43 21.8622C251.43 21.4235 251.795 21.0579 252.234 21.0579C252.673 21.0579 253.038 21.4235 253.038 21.8622C253.111 25.5912 253.185 29.3934 253.404 33.1224C253.404 33.5611 253.111 33.9267 252.6 33.9998C252.6 33.9998 252.6 33.9998 252.526 33.9998C252.234 33.8536 251.868 33.5611 251.795 33.1224ZM254.866 56.3009C254.793 56.3009 254.793 56.3009 254.72 56.3009C254.354 56.3009 253.989 56.0084 253.916 55.5697C253.404 51.9138 252.965 48.1117 252.673 44.3826C252.6 43.9439 252.965 43.5052 253.404 43.5052C253.843 43.4321 254.281 43.7977 254.281 44.2364C254.647 47.9654 255.086 51.7676 255.524 55.4235C255.597 55.7891 255.305 56.2278 254.866 56.3009ZM258.961 78.3826C258.888 78.3826 258.815 78.3826 258.741 78.3826C258.376 78.3826 258.01 78.1633 257.937 77.7245C257.133 74.1418 256.329 70.4127 255.671 66.6837C255.597 66.245 255.89 65.8063 256.329 65.7332C256.767 65.6601 257.206 65.9525 257.279 66.3912C257.937 70.1202 258.741 73.7762 259.546 77.359C259.619 77.8708 259.4 78.3095 258.961 78.3826ZM259.473 56.3009C259.326 55.2041 259.18 54.1073 259.034 53.0106C258.961 52.5719 259.326 52.1331 259.765 52.1331C260.204 52.06 260.643 52.4256 260.643 52.8643C260.789 53.9611 260.935 55.0579 261.081 56.0816C261.154 56.5203 260.862 56.959 260.423 57.0321C260.35 57.0321 260.35 57.0321 260.277 57.0321C259.911 56.959 259.546 56.6665 259.473 56.3009ZM260.496 62.8084C260.35 61.7117 260.131 60.6149 259.985 59.5912C259.911 59.1525 260.204 58.7138 260.643 58.6407C261.081 58.5676 261.52 58.8601 261.593 59.2988C261.739 60.3955 261.959 61.4192 262.105 62.516C262.178 62.9547 261.886 63.3934 261.447 63.4665C261.374 63.4665 261.374 63.4665 261.301 63.4665C260.862 63.4665 260.496 63.174 260.496 62.8084ZM265.249 100.026C265.176 100.026 265.103 100.099 264.957 100.099C264.591 100.099 264.298 99.8794 264.152 99.5869C262.909 96.0773 261.812 92.4213 260.789 88.8385C260.643 88.3998 260.935 87.9611 261.374 87.8149C261.812 87.6687 262.251 87.9611 262.397 88.3998C263.421 91.9826 264.591 95.6385 265.761 99.0751C265.907 99.4407 265.615 99.8794 265.249 100.026ZM266.2 88.4729C265.907 87.4493 265.615 86.3525 265.322 85.3289C265.176 84.8902 265.468 84.4514 265.907 84.3052C266.346 84.159 266.785 84.4515 266.931 84.8902C267.223 85.9138 267.516 87.0106 267.808 88.0343C267.954 88.473 267.662 88.9116 267.223 89.0579C267.15 89.0579 267.077 89.0579 267.004 89.0579C266.565 89.0579 266.273 88.8385 266.2 88.4729ZM268.028 94.7611C267.662 93.7375 267.369 92.6407 267.077 91.617C266.931 91.1783 267.223 90.7396 267.589 90.5934C268.027 90.4472 268.466 90.7396 268.612 91.1052C268.905 92.1289 269.271 93.2257 269.563 94.2493C269.709 94.688 269.49 95.1267 269.051 95.2729C268.978 95.2729 268.905 95.3461 268.832 95.3461C268.466 95.3461 268.174 95.1267 268.028 94.7611ZM271.172 101.488C271.098 101.488 271.025 101.561 270.879 101.561C270.514 101.561 270.221 101.342 270.148 101.049C269.782 100.026 269.417 99.002 269.051 97.9052C268.905 97.4665 269.124 97.0278 269.563 96.8815C270.002 96.7353 270.44 96.9547 270.587 97.3934C270.952 98.417 271.318 99.4407 271.683 100.464C271.83 100.83 271.61 101.342 271.172 101.488ZM271.464 88.4729C271.172 87.4493 270.879 86.3525 270.587 85.3289C270.44 84.8902 270.733 84.4514 271.172 84.3052C271.61 84.159 272.049 84.4515 272.195 84.8902C272.488 85.9138 272.78 87.0106 273.073 88.0343C273.219 88.473 272.926 88.9116 272.488 89.0579C272.415 89.0579 272.341 89.0579 272.268 89.0579C271.903 89.0579 271.61 88.8385 271.464 88.4729ZM273.365 94.7611C273 93.7375 272.707 92.6407 272.415 91.617C272.268 91.1783 272.561 90.7396 272.926 90.5934C273.365 90.4472 273.804 90.7396 273.95 91.1052C274.243 92.1289 274.608 93.2257 274.901 94.2493C275.047 94.688 274.827 95.1267 274.389 95.2729C274.316 95.2729 274.243 95.3461 274.169 95.3461C273.804 95.3461 273.511 95.1267 273.365 94.7611ZM276.509 101.488C276.436 101.488 276.363 101.561 276.217 101.561C275.851 101.561 275.559 101.342 275.486 101.049C275.12 100.026 274.754 99.002 274.389 97.9052C274.243 97.4665 274.462 97.0278 274.901 96.8815C275.339 96.7353 275.778 96.9547 275.924 97.3934C276.29 98.417 276.655 99.4407 277.021 100.464C277.167 100.83 276.948 101.342 276.509 101.488Z" fill="#9A0102"/>
<path d="M244.118 33.8537C243.533 22.5935 243.606 12.5032 244.045 4.31396C242.729 4.75267 241.413 5.19136 240.096 5.70319C240.023 7.31179 239.95 8.92042 239.95 10.529C239.95 10.9677 239.585 11.3333 239.146 11.3333C238.707 11.3333 238.342 10.9677 238.342 10.529C238.342 9.13977 238.415 7.82362 238.488 6.43437C237.172 7.01931 235.929 7.60426 234.686 8.26232C234.686 8.99351 234.613 9.72469 234.613 10.4559C234.613 10.8946 234.247 11.2602 233.808 11.2602C233.37 11.2602 233.004 10.8946 233.004 10.4559C233.004 10.0172 233.004 9.65161 233.004 9.2129C217.503 18.2796 207.12 35.1699 207.12 54.4C207.12 77.1398 221.671 96.5161 241.924 103.755C241.924 103.462 242.144 103.17 242.436 103.097C242.875 102.951 243.314 103.17 243.46 103.609C243.533 103.901 243.679 104.194 243.752 104.486C245.069 104.925 246.385 105.217 247.701 105.583C247.555 105.144 247.335 104.705 247.189 104.194C247.043 103.755 247.262 103.316 247.701 103.17C248.139 103.024 248.578 103.243 248.724 103.682C249.017 104.486 249.309 105.217 249.602 106.021C252.673 106.606 255.744 106.899 258.961 106.899C256.036 99.4408 253.55 91.6172 251.503 83.501C247.555 67.8537 245.069 51.2559 244.118 33.8537ZM243.094 65.8064C243.533 65.7333 243.972 66.0258 244.045 66.4645C244.703 70.1935 245.507 73.8494 246.312 77.4322C246.385 77.8709 246.165 78.3097 245.727 78.3828C245.653 78.3828 245.58 78.3828 245.507 78.3828C245.142 78.3828 244.776 78.1634 244.703 77.7247C243.899 74.1419 243.094 70.4129 242.436 66.6838C242.363 66.3183 242.656 65.8795 243.094 65.8064ZM240.974 44.2365C241.34 47.9656 241.778 51.7677 242.217 55.4236C242.29 55.8623 241.998 56.3011 241.486 56.3742C241.413 56.3742 241.413 56.3742 241.34 56.3742C240.974 56.3742 240.608 56.0817 240.535 55.643C240.023 51.9871 239.585 48.1849 239.292 44.4559C239.219 44.0172 239.585 43.5785 240.023 43.5785C240.608 43.4323 240.974 43.7247 240.974 44.2365ZM238.853 71.5096C239.292 71.4365 239.731 71.729 239.804 72.1677C240.023 73.1914 240.243 74.2882 240.462 75.3849C240.535 75.8236 240.316 76.2623 239.877 76.3355C239.804 76.3355 239.731 76.3355 239.731 76.3355C239.365 76.3355 239 76.043 238.927 75.6774C238.707 74.5806 238.488 73.557 238.269 72.4602C238.122 72.0215 238.415 71.5828 238.853 71.5096ZM237.61 69.243C237.391 68.1462 237.172 67.1225 237.026 66.0258C236.952 65.5871 237.245 65.1484 237.684 65.0752C238.122 65.0021 238.561 65.2946 238.634 65.7333C238.853 66.8301 239 67.8537 239.219 68.9505C239.292 69.3892 239 69.8279 238.561 69.9011C238.488 69.9011 238.488 69.9011 238.415 69.9011C237.976 69.9011 237.684 69.6817 237.61 69.243ZM240.243 77.9441C240.681 77.871 241.12 78.0903 241.193 78.529C241.413 79.5527 241.705 80.6494 241.998 81.6731C242.071 82.1118 241.851 82.5505 241.413 82.6236C241.339 82.6236 241.266 82.6236 241.193 82.6236C240.828 82.6236 240.535 82.4043 240.389 82.0387C240.096 81.015 239.877 79.9182 239.585 78.8215C239.512 78.4559 239.804 78.0172 240.243 77.9441ZM239 20.9849C239.438 20.9849 239.804 21.3505 239.804 21.7892C239.877 25.5182 239.95 29.3204 240.17 33.0494C240.17 33.4881 239.877 33.8537 239.365 33.9269C239.365 33.9269 239.365 33.9269 239.292 33.9269C238.853 33.9269 238.488 33.5612 238.488 33.1225C238.269 29.3935 238.195 25.5914 238.122 21.8624C238.195 21.3505 238.561 20.9849 239 20.9849ZM237.537 59.2989C237.684 60.3957 237.903 61.4193 238.049 62.5161C238.122 62.9548 237.83 63.3935 237.391 63.4666C237.318 63.4666 237.318 63.4666 237.245 63.4666C236.879 63.4666 236.514 63.1742 236.441 62.8086C236.294 61.7118 236.075 60.615 235.929 59.5914C235.856 59.1527 236.148 58.714 236.587 58.6408C237.026 58.5677 237.464 58.8602 237.537 59.2989ZM236.587 52.8645C236.733 53.9612 236.879 55.058 237.026 56.0817C237.099 56.5204 236.806 56.9591 236.367 57.0322C236.294 57.0322 236.294 57.0322 236.221 57.0322C235.856 57.0322 235.49 56.7398 235.417 56.301C235.271 55.2043 235.124 54.1075 234.978 53.0107C234.905 52.572 235.271 52.1333 235.709 52.1333C236.148 52.0602 236.587 52.3526 236.587 52.8645ZM235.856 46.357C235.929 47.4537 236.075 48.5505 236.221 49.5742C236.294 50.0129 235.929 50.4516 235.49 50.4516H235.417C234.978 50.4516 234.686 50.1591 234.613 49.7204C234.466 48.6236 234.393 47.5268 234.247 46.4301C234.174 45.9914 234.539 45.5526 234.978 45.5526C235.417 45.5526 235.856 45.9183 235.856 46.357ZM235.563 43.0667C235.636 43.5054 235.271 43.9441 234.832 43.9441H234.759C234.32 43.9441 233.955 43.6516 233.955 43.2129C233.881 42.1161 233.735 41.0193 233.662 39.9226C233.662 39.4839 233.955 39.1183 234.393 39.0451C234.832 39.0451 235.198 39.3376 235.271 39.7763C235.417 40.9462 235.49 42.043 235.563 43.0667ZM235.051 36.5591C235.051 36.9978 234.759 37.3634 234.32 37.4365C234.32 37.4365 234.32 37.4365 234.247 37.4365C233.808 37.4365 233.443 37.0709 233.443 36.7054C233.37 35.6086 233.296 34.5118 233.223 33.415C233.223 32.9763 233.516 32.6107 234.028 32.5376C234.466 32.5376 234.832 32.8301 234.905 33.3419C234.978 34.3656 234.978 35.4623 235.051 36.5591ZM234.613 26.7613C234.613 27.8581 234.686 28.9548 234.759 30.0516C234.759 30.4903 234.393 30.8559 233.955 30.929C233.516 30.929 233.15 30.5634 233.15 30.1247C233.077 29.0279 233.077 27.9312 233.004 26.8344C233.004 26.3957 233.37 26.0301 233.808 26.0301C234.247 26.0301 234.613 26.3226 234.613 26.7613ZM233.735 24.3483C233.296 24.3483 232.931 23.9828 232.931 23.5441C232.931 22.4473 232.931 21.3505 232.858 20.2537C232.858 19.815 233.223 19.4495 233.662 19.4495C234.101 19.4495 234.466 19.815 234.466 20.2537C234.466 21.3505 234.466 22.4473 234.539 23.5441C234.539 23.9828 234.174 24.3483 233.735 24.3483ZM232.858 13.6731C232.858 13.2344 233.223 12.8688 233.662 12.8688C234.101 12.8688 234.466 13.2344 234.466 13.6731C234.466 14.7699 234.466 15.8666 234.466 16.9634C234.466 17.4021 234.101 17.7677 233.662 17.7677C233.223 17.7677 232.858 17.4021 232.858 16.9634C232.858 15.8666 232.858 14.7699 232.858 13.6731ZM227.593 13.6731C227.593 13.2344 227.959 12.8688 228.398 12.8688C228.836 12.8688 229.202 13.2344 229.202 13.6731C229.202 14.7699 229.202 15.8666 229.202 16.9634C229.202 17.4021 228.836 17.7677 228.398 17.7677C227.959 17.7677 227.593 17.4021 227.593 16.9634C227.52 15.8666 227.593 14.7699 227.593 13.6731ZM227.52 20.2537C227.52 19.815 227.886 19.4495 228.324 19.4495C228.763 19.4495 229.129 19.815 229.129 20.2537C229.129 21.3505 229.129 22.4473 229.202 23.5441C229.202 23.9828 228.836 24.3483 228.398 24.3483C227.959 24.3483 227.593 23.9828 227.593 23.5441C227.593 22.4473 227.593 21.3505 227.52 20.2537ZM227.666 26.8344C227.666 26.3957 228.032 26.0301 228.471 26.0301C228.909 26.0301 229.275 26.3957 229.275 26.8344C229.275 27.9312 229.348 29.0279 229.421 30.1247C229.421 30.5634 229.056 30.929 228.617 31.0021C228.178 31.0021 227.813 30.6365 227.813 30.1978C227.74 29.0279 227.739 27.9312 227.666 26.8344ZM227.959 33.415C227.959 32.9763 228.251 32.6107 228.763 32.5376C229.202 32.5376 229.567 32.8301 229.641 33.3419C229.714 34.4387 229.787 35.5355 229.86 36.6323C229.86 37.071 229.567 37.4365 229.129 37.5096C229.129 37.5096 229.129 37.5096 229.056 37.5096C228.617 37.5096 228.251 37.144 228.251 36.7785C228.105 35.6086 228.032 34.5118 227.959 33.415ZM228.617 43.2129C228.544 42.1161 228.398 41.0193 228.324 39.9226C228.324 39.4839 228.617 39.1183 229.056 39.0451C229.494 39.0451 229.86 39.3376 229.933 39.7763C230.006 40.8731 230.079 41.9699 230.226 43.0667C230.299 43.5054 229.933 43.9441 229.494 43.9441H229.421C229.056 43.9441 228.69 43.6516 228.617 43.2129ZM229.275 49.7935C229.129 48.6968 229.056 47.6 228.909 46.5032C228.836 46.0645 229.202 45.6258 229.641 45.6258C230.079 45.5527 230.518 45.9183 230.518 46.357C230.591 47.4537 230.737 48.5505 230.884 49.5742C230.957 50.0129 230.591 50.4516 230.152 50.4516H230.079C229.714 50.5247 229.348 50.1591 229.275 49.7935ZM230.152 56.301C230.006 55.2043 229.86 54.1075 229.714 53.0107C229.641 52.572 230.006 52.1333 230.445 52.1333C230.884 52.0602 231.322 52.4258 231.322 52.8645C231.469 53.9612 231.615 55.058 231.761 56.0817C231.834 56.5204 231.542 56.9591 231.103 57.0322C231.03 57.0322 231.03 57.0322 230.957 57.0322C230.518 56.9591 230.152 56.6666 230.152 56.301ZM231.103 62.8086C230.957 61.7118 230.737 60.615 230.591 59.5914C230.518 59.1527 230.81 58.714 231.249 58.6408C231.688 58.5677 232.127 58.8602 232.2 59.2989C232.346 60.3957 232.565 61.4193 232.712 62.5161C232.785 62.9548 232.492 63.3935 232.053 63.4666C231.98 63.4666 231.98 63.4666 231.907 63.4666C231.542 63.4666 231.176 63.1742 231.103 62.8086ZM232.273 69.243C232.053 68.1462 231.834 67.1225 231.688 66.0258C231.615 65.5871 231.907 65.1484 232.346 65.0752C232.785 65.0021 233.223 65.2946 233.296 65.7333C233.516 66.8301 233.662 67.8537 233.881 68.9505C233.955 69.3892 233.662 69.8279 233.223 69.9011C233.15 69.9011 233.15 69.9011 233.077 69.9011C232.712 69.9011 232.346 69.6817 232.273 69.243ZM233.589 75.6774C233.37 74.5806 233.15 73.557 232.931 72.4602C232.858 72.0215 233.15 71.5828 233.589 71.5096C234.028 71.4365 234.466 71.729 234.539 72.1677C234.759 73.1914 234.978 74.2882 235.198 75.3849C235.271 75.8236 235.051 76.2623 234.613 76.3355C234.539 76.3355 234.466 76.3355 234.466 76.3355C234.028 76.3355 233.662 76.1161 233.589 75.6774ZM235.124 82.1118C234.832 81.0881 234.613 79.9914 234.32 78.8946C234.247 78.4559 234.466 78.0172 234.905 77.9441C235.344 77.871 235.783 78.0903 235.856 78.529C236.075 79.5527 236.367 80.6494 236.66 81.6731C236.733 82.1118 236.514 82.5505 236.075 82.6236C236.002 82.6236 235.929 82.6236 235.856 82.6236C235.563 82.6967 235.198 82.4774 235.124 82.1118ZM236.806 88.4731C236.514 87.4494 236.221 86.3527 235.929 85.329C235.782 84.8903 236.075 84.4516 236.514 84.3053C236.952 84.1591 237.391 84.4516 237.537 84.8903C237.83 85.914 238.122 87.0107 238.415 88.0344C238.561 88.4731 238.269 88.9118 237.83 89.058C237.757 89.058 237.684 89.058 237.61 89.058C237.245 89.058 236.952 88.8387 236.806 88.4731ZM238.707 94.7613C238.342 93.7376 238.049 92.6408 237.757 91.6172C237.61 91.1784 237.903 90.7398 238.269 90.5935C238.707 90.4473 239.146 90.7398 239.292 91.1054C239.585 92.129 239.95 93.2258 240.243 94.2494C240.389 94.6882 240.17 95.1268 239.731 95.2731C239.658 95.2731 239.585 95.3462 239.512 95.3462C239.146 95.3462 238.853 95.1269 238.707 94.7613ZM241.851 101.488C241.778 101.488 241.705 101.561 241.559 101.561C241.193 101.561 240.901 101.342 240.828 101.049C240.462 100.026 240.096 99.0021 239.731 97.9054C239.585 97.4666 239.804 97.0279 240.243 96.8817C240.681 96.7354 241.12 96.9548 241.266 97.3935C241.632 98.4172 241.998 99.4408 242.363 100.464C242.509 100.83 242.29 101.342 241.851 101.488ZM242.144 88.4731C241.851 87.4494 241.559 86.3527 241.266 85.329C241.12 84.8903 241.413 84.4516 241.851 84.3053C242.29 84.1591 242.729 84.4516 242.875 84.8903C243.167 85.914 243.46 87.0107 243.752 88.0344C243.899 88.4731 243.606 88.9118 243.167 89.058C243.094 89.058 243.021 89.058 242.948 89.058C242.582 89.058 242.217 88.8387 242.144 88.4731ZM244.045 94.7613C243.679 93.7376 243.387 92.6408 243.094 91.6172C242.948 91.1784 243.241 90.7398 243.606 90.5935C244.045 90.4473 244.484 90.7398 244.63 91.1054C244.922 92.129 245.288 93.2258 245.58 94.2494C245.727 94.6882 245.507 95.1268 245.069 95.2731C244.995 95.2731 244.922 95.3462 244.849 95.3462C244.484 95.3462 244.118 95.1269 244.045 94.7613ZM247.189 101.488C247.116 101.488 247.043 101.561 246.896 101.561C246.531 101.561 246.238 101.342 246.165 101.049C245.8 100.026 245.434 99.0021 245.069 97.9054C244.922 97.4666 245.142 97.0279 245.58 96.8817C246.019 96.7354 246.458 96.9548 246.604 97.3935C246.97 98.4172 247.335 99.4408 247.701 100.464C247.774 100.83 247.555 101.342 247.189 101.488ZM251.942 100.026C251.869 100.026 251.795 100.099 251.649 100.099C251.284 100.099 250.991 99.8795 250.845 99.5871C249.602 96.0774 248.505 92.4215 247.481 88.8387C247.335 88.4 247.628 87.9613 248.066 87.815C248.505 87.6688 248.944 87.9613 249.09 88.4C250.114 91.9828 251.284 95.6387 252.453 99.0752C252.6 99.4408 252.38 99.8795 251.942 100.026Z" fill="#9A0102"/>
<path d="M247.628 33.7805C246.97 22.0815 247.116 11.6988 247.555 3.36328C246.312 3.65575 245.142 3.94822 243.972 4.31381C243.606 12.5031 243.46 22.5934 244.045 33.8536C244.996 51.1826 247.482 67.8536 251.43 83.2815C253.55 91.3977 256.036 99.2213 258.888 106.679C259.034 106.679 259.181 106.679 259.327 106.679C260.424 106.679 261.593 106.606 262.69 106.606C259.619 98.9288 257.06 90.8858 254.867 82.4772C251.064 67.2686 248.578 50.8901 247.628 33.7805Z" fill="white"/>
<path d="M253.477 32.9761C253.258 29.2471 253.185 25.5181 253.112 21.7159C253.112 21.2772 252.746 20.9116 252.307 20.9116C251.869 20.9116 251.503 21.2772 251.503 21.7159C251.576 25.4449 251.649 29.2471 251.869 32.9761C251.869 33.4148 252.234 33.7804 252.673 33.7804C252.673 33.7804 252.673 33.7804 252.746 33.7804C253.112 33.8535 253.477 33.488 253.477 32.9761Z" fill="white"/>
<path d="M254.282 44.2364C254.208 43.7977 253.843 43.4321 253.404 43.5052C252.965 43.5783 252.6 43.9439 252.673 44.3826C253.039 48.1117 253.477 51.9138 253.916 55.5697C253.989 56.0084 254.355 56.3009 254.72 56.3009C254.72 56.3009 254.793 56.3009 254.866 56.3009C255.305 56.2278 255.598 55.8622 255.598 55.3504C255.013 51.6945 254.574 47.9654 254.282 44.2364Z" fill="white"/>
<path d="M252.307 11.3334C252.746 11.3334 253.112 10.9678 253.112 10.5291C253.185 7.7506 253.258 5.04522 253.477 2.33984C252.892 2.41296 252.381 2.48607 251.869 2.55919C251.722 5.19145 251.649 7.82372 251.576 10.5291C251.503 10.9678 251.869 11.3334 252.307 11.3334Z" fill="white"/>
<path d="M257.279 66.4644C257.206 66.0257 256.768 65.7332 256.329 65.8064C255.89 65.8795 255.598 66.3182 255.671 66.7569C256.329 70.4859 257.133 74.215 257.937 77.7978C258.011 78.1634 258.376 78.4558 258.742 78.4558C258.815 78.4558 258.888 78.4558 258.961 78.4558C259.4 78.3827 259.692 77.944 259.546 77.5053C258.742 73.8494 257.937 70.1204 257.279 66.4644Z" fill="white"/>
<path d="M262.324 88.3268C262.178 87.8881 261.74 87.6688 261.301 87.7419C260.862 87.8881 260.643 88.3268 260.716 88.7656C261.74 92.4215 262.909 96.0043 264.079 99.514C264.226 99.8795 264.518 100.026 264.884 100.026C264.957 100.026 265.03 100.026 265.176 99.9526C265.615 99.8064 265.834 99.3677 265.688 98.929C264.518 95.4924 263.421 91.9096 262.324 88.3268Z" fill="white"/>
<path d="M239.073 11.3332C239.512 11.3332 239.878 10.9677 239.878 10.529C239.951 8.92036 239.951 7.31173 240.024 5.70312C239.439 5.92248 238.927 6.14183 238.342 6.43431C238.269 7.82355 238.269 9.13971 238.196 10.529C238.269 10.9677 238.635 11.3332 239.073 11.3332Z" fill="white"/>
<path d="M239.366 33.8535C239.366 33.8535 239.439 33.8535 239.366 33.8535C239.878 33.8535 240.17 33.4148 240.17 32.9761C239.951 29.2471 239.878 25.5181 239.804 21.7159C239.804 21.2772 239.439 20.9116 239 20.9116C238.561 20.9116 238.196 21.2772 238.196 21.7159C238.269 25.4449 238.342 29.2471 238.561 32.9761C238.635 33.5611 238.927 33.8535 239.366 33.8535Z" fill="white"/>
<path d="M248.066 87.7418C247.628 87.8881 247.408 88.3268 247.482 88.7655C248.505 92.4214 249.675 96.0042 250.845 99.5139C250.991 99.8795 251.284 100.026 251.649 100.026C251.722 100.026 251.796 100.026 251.942 99.9526C252.38 99.8064 252.6 99.3676 252.454 98.9289C251.284 95.4192 250.114 91.8365 249.09 88.2537C248.944 87.8881 248.505 87.5956 248.066 87.7418Z" fill="white"/>
<path d="M239.366 44.3827C239.731 48.1118 240.17 51.9139 240.609 55.5698C240.682 56.0085 241.047 56.301 241.413 56.301C241.486 56.301 241.486 56.301 241.559 56.301C241.998 56.2279 242.29 55.8623 242.29 55.3505C241.779 51.6946 241.34 47.9655 241.047 44.1634C240.974 43.7247 240.609 43.3591 240.17 43.4322C239.658 43.5053 239.366 43.944 239.366 44.3827Z" fill="white"/>
<path d="M244.703 77.7979C244.776 78.1635 245.142 78.4559 245.507 78.4559C245.58 78.4559 245.654 78.4559 245.727 78.4559C246.165 78.3828 246.458 77.9441 246.312 77.5054C245.507 73.9226 244.703 70.1936 244.045 66.5376C243.972 66.0989 243.533 65.8065 243.094 65.8796C242.656 65.9527 242.363 66.3914 242.436 66.8301C243.094 70.486 243.899 74.2151 244.703 77.7979Z" fill="white"/>
<path d="M269.636 94.2496C269.344 93.226 268.978 92.2023 268.686 91.1055C268.539 90.6668 268.101 90.4475 267.662 90.5937C267.223 90.7399 267.004 91.1786 267.15 91.6173C267.443 92.641 267.808 93.7378 268.101 94.7615C268.247 95.127 268.539 95.3464 268.905 95.3464C268.978 95.3464 269.051 95.3464 269.124 95.2732C269.49 95.127 269.709 94.6883 269.636 94.2496Z" fill="white"/>
<path d="M257.718 17.7675C258.157 17.7675 258.523 17.402 258.523 16.9633C258.523 15.8665 258.523 14.7697 258.523 13.6729C258.523 13.2342 258.157 12.8687 257.718 12.8687C257.28 12.8687 256.914 13.2342 256.914 13.6729C256.914 14.7697 256.914 15.8665 256.914 16.9633C256.914 17.402 257.28 17.7675 257.718 17.7675Z" fill="white"/>
<path d="M270.66 97.3934C270.514 96.9547 270.075 96.7353 269.636 96.8815C269.198 97.0278 268.978 97.4665 269.125 97.9052C269.49 98.9289 269.856 99.9525 270.221 101.049C270.368 101.415 270.66 101.561 270.953 101.561C271.026 101.561 271.099 101.561 271.245 101.488C271.684 101.342 271.903 100.903 271.757 100.464C271.318 99.4407 270.953 98.417 270.66 97.3934Z" fill="white"/>
<path d="M258.011 4.67951C258.449 4.67951 258.815 4.31389 258.888 3.87518C258.888 3.21711 258.961 2.63219 258.961 1.97412C258.449 1.97412 257.864 1.9741 257.353 2.04722C257.353 2.63217 257.28 3.21713 257.28 3.80208C257.206 4.31391 257.572 4.67951 258.011 4.67951Z" fill="white"/>
<path d="M261.374 63.4666C261.813 63.3935 262.105 62.9548 262.032 62.5161C261.886 61.4193 261.666 60.3957 261.52 59.2989C261.447 58.8602 261.008 58.5677 260.57 58.6408C260.131 58.714 259.838 59.1527 259.912 59.5914C260.058 60.6881 260.277 61.7849 260.423 62.8086C260.497 63.1742 260.862 63.4666 261.228 63.4666C261.301 63.4666 261.374 63.4666 261.374 63.4666Z" fill="white"/>
<path d="M267.735 88.0344C267.443 87.0108 267.15 85.914 266.858 84.8903C266.712 84.4516 266.273 84.2322 265.834 84.3054C265.396 84.4516 265.176 84.8903 265.249 85.329C265.542 86.3527 265.834 87.4495 266.127 88.4731C266.2 88.8387 266.565 89.058 266.931 89.058C267.004 89.058 267.077 89.058 267.15 89.058C267.589 88.9118 267.882 88.4731 267.735 88.0344Z" fill="white"/>
<path d="M260.423 56.959C260.862 56.8859 261.155 56.5203 261.082 56.0085C260.935 54.9117 260.789 53.8149 260.643 52.7912C260.57 52.3525 260.204 52.0601 259.765 52.0601C259.327 52.1332 259.034 52.4988 259.034 52.9375C259.18 54.0343 259.327 55.131 259.473 56.2278C259.546 56.6665 259.912 56.959 260.277 56.959C260.35 56.959 260.35 56.959 260.423 56.959Z" fill="white"/>
<path d="M257.791 24.3481C258.23 24.3481 258.596 23.9825 258.596 23.5438C258.596 22.4471 258.596 21.3503 258.523 20.2535C258.523 19.8148 258.157 19.4492 257.718 19.4492C257.28 19.4492 256.914 19.8148 256.914 20.2535C256.914 21.3503 256.914 22.4471 256.987 23.5438C256.987 23.9825 257.28 24.3481 257.791 24.3481Z" fill="white"/>
<path d="M264.445 82.1117C264.518 82.4772 264.884 82.6966 265.249 82.6966C265.323 82.6966 265.396 82.6966 265.469 82.6966C265.908 82.5504 266.2 82.1117 266.054 81.7461C265.761 80.7224 265.542 79.6256 265.249 78.602C265.176 78.1633 264.738 77.8708 264.299 78.017C263.86 78.0902 263.568 78.5289 263.714 78.9676C263.933 79.9912 264.226 81.0149 264.445 82.1117Z" fill="white"/>
<path d="M257.791 11.2604C258.23 11.2604 258.596 10.8947 258.596 10.456C258.596 9.35926 258.669 8.26249 258.669 7.16571C258.669 6.727 258.303 6.36145 257.864 6.28833C257.426 6.28833 257.06 6.6539 256.987 7.09261C256.914 8.18939 256.914 9.28616 256.914 10.3829C256.987 10.8216 257.353 11.2604 257.791 11.2604Z" fill="white"/>
<path d="M271.757 103.024C271.318 103.17 271.099 103.682 271.245 104.047C271.391 104.413 271.537 104.852 271.684 105.217C272.195 105.071 272.707 104.925 273.292 104.778C273.146 104.34 272.927 103.901 272.78 103.389C272.634 103.097 272.195 102.877 271.757 103.024Z" fill="white"/>
<path d="M258.084 32.5376C257.645 32.5376 257.279 32.9763 257.279 33.415C257.353 34.5118 257.426 35.6086 257.499 36.7053C257.499 37.1441 257.864 37.4365 258.303 37.4365C258.303 37.4365 258.303 37.4365 258.376 37.4365C258.815 37.4365 259.18 36.9978 259.107 36.5591C259.034 35.4623 258.961 34.3656 258.888 33.2688C258.888 32.8301 258.522 32.5376 258.084 32.5376Z" fill="white"/>
<path d="M259.034 45.6258C258.596 45.6989 258.23 46.0645 258.303 46.5032C258.449 47.6 258.522 48.6967 258.669 49.7935C258.742 50.2322 259.034 50.5247 259.473 50.5247H259.546C259.985 50.4516 260.277 50.086 260.277 49.6473C260.131 48.5505 260.058 47.4537 259.912 46.4301C259.912 45.9182 259.473 45.5527 259.034 45.6258Z" fill="white"/>
<path d="M257.864 26.0303C257.864 26.0303 257.791 26.0303 257.864 26.0303C257.426 26.0303 257.06 26.3958 257.06 26.8346C257.06 27.9313 257.133 29.0281 257.206 30.1249C257.206 30.5636 257.572 30.9292 258.011 30.9292C258.449 30.9292 258.815 30.5636 258.815 30.0518C258.742 28.955 258.742 27.8582 258.669 26.7615C258.669 26.3227 258.303 26.0303 257.864 26.0303Z" fill="white"/>
<path d="M261.666 65.0752C261.228 65.1483 260.935 65.587 261.008 66.0257C261.228 67.1225 261.374 68.2193 261.593 69.2429C261.666 69.6085 262.032 69.901 262.398 69.901C262.471 69.901 262.471 69.901 262.544 69.901C262.982 69.8279 263.275 69.3891 263.202 68.9504C262.982 67.9268 262.763 66.83 262.617 65.7332C262.544 65.2945 262.105 65.002 261.666 65.0752Z" fill="white"/>
<path d="M262.983 75.6775C263.056 76.0431 263.421 76.3356 263.787 76.3356C263.86 76.3356 263.933 76.3356 263.933 76.3356C264.372 76.2624 264.664 75.8237 264.518 75.385C264.299 74.3614 264.079 73.2646 263.86 72.1678C263.787 71.7291 263.348 71.4366 262.91 71.5097C262.471 71.5829 262.178 72.0216 262.251 72.4603C262.471 73.5571 262.69 74.6538 262.983 75.6775Z" fill="white"/>
<path d="M258.449 39.1182C258.01 39.1182 257.645 39.557 257.718 39.9957C257.791 41.0925 257.864 42.1892 258.01 43.286C258.084 43.7247 258.376 44.0172 258.815 44.0172H258.888C259.327 43.9441 259.692 43.5785 259.619 43.1398C259.546 42.043 259.4 40.9462 259.327 39.8494C259.327 39.4107 258.888 39.0451 258.449 39.1182Z" fill="white"/>
<path d="M239.146 68.9504C238.927 67.9268 238.707 66.83 238.561 65.7332C238.488 65.2945 238.049 65.002 237.611 65.0752C237.172 65.1483 236.879 65.587 236.952 66.0257C237.172 67.1225 237.318 68.2193 237.537 69.2429C237.611 69.6085 237.976 69.901 238.342 69.901C238.415 69.901 238.415 69.901 238.488 69.901C239 69.8279 239.292 69.3891 239.146 68.9504Z" fill="white"/>
<path d="M238.927 75.6775C239 76.0431 239.365 76.3356 239.731 76.3356C239.804 76.3356 239.877 76.3356 239.877 76.3356C240.316 76.2624 240.608 75.8237 240.462 75.385C240.243 74.3614 240.023 73.2646 239.804 72.1678C239.731 71.7291 239.292 71.4366 238.853 71.5097C238.415 71.5829 238.122 72.0216 238.195 72.4603C238.415 73.5571 238.707 74.6538 238.927 75.6775Z" fill="white"/>
<path d="M243.679 88.0344C243.387 87.0108 243.095 85.914 242.802 84.8903C242.656 84.4516 242.217 84.2322 241.778 84.3054C241.34 84.4516 241.12 84.8903 241.193 85.329C241.486 86.3527 241.778 87.4495 242.071 88.4731C242.144 88.8387 242.51 89.058 242.875 89.058C242.948 89.058 243.021 89.058 243.094 89.058C243.533 88.9118 243.826 88.4731 243.679 88.0344Z" fill="white"/>
<path d="M245.58 94.2496C245.288 93.226 244.922 92.2023 244.63 91.1055C244.484 90.6668 244.045 90.4475 243.606 90.5937C243.168 90.7399 242.948 91.1786 243.094 91.6173C243.387 92.641 243.752 93.7378 244.045 94.7615C244.191 95.127 244.484 95.3464 244.849 95.3464C244.922 95.3464 244.996 95.3464 245.069 95.2732C245.507 95.127 245.727 94.6883 245.58 94.2496Z" fill="white"/>
<path d="M247.701 103.024C247.262 103.17 247.043 103.682 247.189 104.047C247.335 104.486 247.555 104.925 247.701 105.436C248.359 105.583 248.944 105.729 249.602 105.802C249.309 104.998 249.017 104.267 248.725 103.462C248.578 103.097 248.14 102.877 247.701 103.024Z" fill="white"/>
<path d="M246.604 97.3934C246.458 96.9547 246.019 96.7353 245.58 96.8815C245.142 97.0278 244.922 97.4665 245.069 97.9052C245.434 98.9289 245.8 100.026 246.165 101.049C246.312 101.415 246.604 101.561 246.897 101.561C246.97 101.561 247.043 101.561 247.189 101.488C247.628 101.342 247.847 100.903 247.701 100.464C247.262 99.4407 246.97 98.417 246.604 97.3934Z" fill="white"/>
<path d="M233.735 11.2603C234.174 11.2603 234.539 10.8947 234.539 10.456C234.539 9.72482 234.613 8.99363 234.613 8.26245C234.028 8.55492 233.516 8.84743 232.931 9.21302C232.931 9.65173 232.931 10.0173 232.931 10.456C232.931 10.8216 233.296 11.2603 233.735 11.2603Z" fill="white"/>
<path d="M240.462 82.1117C240.535 82.4772 240.901 82.6966 241.267 82.6966C241.34 82.6966 241.413 82.6966 241.486 82.6966C241.925 82.5504 242.217 82.1117 242.071 81.7461C241.778 80.7224 241.559 79.6256 241.267 78.602C241.193 78.1633 240.755 77.8708 240.316 78.017C239.877 78.0902 239.585 78.5289 239.731 78.9676C239.877 79.9912 240.17 81.0149 240.462 82.1117Z" fill="white"/>
<path d="M236.587 58.6408C236.148 58.714 235.856 59.1527 235.929 59.5914C236.075 60.6881 236.295 61.7849 236.441 62.8086C236.514 63.1742 236.88 63.4666 237.245 63.4666C237.318 63.4666 237.318 63.4666 237.391 63.4666C237.83 63.3935 238.123 62.9548 238.049 62.5161C237.903 61.4193 237.684 60.3957 237.538 59.2989C237.465 58.8602 237.026 58.5677 236.587 58.6408Z" fill="white"/>
<path d="M233.808 26.0303C233.37 26.0303 233.004 26.3958 233.004 26.8346C233.004 27.9313 233.077 29.0281 233.15 30.1249C233.15 30.5636 233.516 30.9292 233.955 30.9292C234.393 30.9292 234.759 30.5636 234.759 30.0518C234.686 28.955 234.686 27.8582 234.613 26.7615C234.613 26.3227 234.247 26.0303 233.808 26.0303Z" fill="white"/>
<path d="M233.662 17.7675C234.101 17.7675 234.467 17.402 234.467 16.9633C234.467 15.8665 234.467 14.7697 234.467 13.6729C234.467 13.2342 234.101 12.8687 233.662 12.8687C233.224 12.8687 232.858 13.2342 232.858 13.6729C232.858 14.7697 232.858 15.8665 232.858 16.9633C232.858 17.402 233.224 17.7675 233.662 17.7675Z" fill="white"/>
<path d="M234.027 32.5376C233.589 32.5376 233.223 32.9763 233.223 33.415C233.296 34.5118 233.369 35.6086 233.442 36.7053C233.442 37.1441 233.808 37.4365 234.247 37.4365C234.247 37.4365 234.247 37.4365 234.32 37.4365C234.759 37.4365 235.124 36.9978 235.051 36.5591C234.978 35.4623 234.905 34.3656 234.832 33.2688C234.832 32.8301 234.466 32.5376 234.027 32.5376Z" fill="white"/>
<path d="M233.662 19.4492C233.224 19.4492 232.858 19.8148 232.858 20.2535C232.858 21.3503 232.858 22.4471 232.931 23.5438C232.931 23.9825 233.297 24.3481 233.735 24.3481C234.174 24.3481 234.54 23.9825 234.54 23.5438C234.54 22.4471 234.54 21.3503 234.467 20.2535C234.467 19.8148 234.101 19.4492 233.662 19.4492Z" fill="white"/>
<path d="M234.466 39.1182C234.028 39.1182 233.662 39.557 233.735 39.9957C233.808 41.0925 233.882 42.1892 234.028 43.286C234.101 43.7247 234.393 44.0172 234.832 44.0172H234.905C235.344 43.9441 235.709 43.5785 235.636 43.1398C235.563 42.043 235.417 40.9462 235.344 39.8494C235.271 39.4107 234.905 39.0451 234.466 39.1182Z" fill="white"/>
<path d="M235.71 52.1332C235.271 52.2063 234.978 52.5719 234.978 53.0106C235.125 54.1074 235.271 55.2042 235.417 56.3009C235.49 56.7396 235.856 57.0321 236.221 57.0321C236.295 57.0321 236.294 57.0321 236.368 57.0321C236.806 56.959 237.099 56.5934 237.026 56.0816C236.879 54.9848 236.733 53.888 236.587 52.8644C236.587 52.3525 236.148 52.0601 235.71 52.1332Z" fill="white"/>
<path d="M234.978 45.6258C234.54 45.6989 234.174 46.0645 234.247 46.5032C234.393 47.6 234.467 48.6967 234.613 49.7935C234.686 50.2322 234.978 50.5247 235.417 50.5247H235.49C235.929 50.4516 236.221 50.086 236.221 49.6473C236.075 48.5505 236.002 47.4537 235.856 46.4301C235.856 45.9182 235.417 45.5527 234.978 45.6258Z" fill="white"/>
<path d="M273.073 88.0344C272.78 87.0108 272.488 85.914 272.195 84.8903C272.049 84.4516 271.611 84.2322 271.172 84.3054C270.733 84.4516 270.514 84.8903 270.587 85.329C270.879 86.3527 271.172 87.4495 271.464 88.4731C271.537 88.8387 271.903 89.058 272.269 89.058C272.342 89.058 272.415 89.058 272.488 89.058C272.927 88.9118 273.146 88.4731 273.073 88.0344Z" fill="white"/>
<path d="M275.924 97.3934C275.778 96.9547 275.34 96.7353 274.901 96.8815C274.462 97.0278 274.243 97.4665 274.389 97.9052C274.755 98.9289 275.12 99.9525 275.486 101.049C275.632 101.415 275.924 101.561 276.217 101.561C276.29 101.561 276.363 101.561 276.509 101.488C276.948 101.342 277.168 100.903 277.021 100.464C276.656 99.4407 276.29 98.417 275.924 97.3934Z" fill="white"/>
<path d="M274.901 94.2496C274.608 93.226 274.243 92.2023 273.95 91.1055C273.804 90.6668 273.365 90.4475 272.927 90.5937C272.488 90.7399 272.269 91.1786 272.415 91.6173C272.707 92.641 273.073 93.7378 273.365 94.7615C273.512 95.127 273.804 95.3464 274.17 95.3464C274.243 95.3464 274.316 95.3464 274.389 95.2732C274.828 95.127 275.047 94.6883 274.901 94.2496Z" fill="white"/>
<path d="M263.056 24.3481C263.494 24.3481 263.86 23.9825 263.86 23.5438C263.86 22.4471 263.86 21.3503 263.787 20.2535C263.787 19.8148 263.421 19.4492 262.983 19.4492C262.544 19.4492 262.178 19.8148 262.178 20.2535C262.178 21.3503 262.178 22.4471 262.251 23.5438C262.251 23.9825 262.617 24.3481 263.056 24.3481Z" fill="white"/>
<path d="M263.787 39.1182C263.348 39.1182 262.982 39.557 263.056 39.9957C263.129 41.0925 263.202 42.1892 263.348 43.286C263.421 43.7247 263.714 44.0172 264.152 44.0172H264.225C264.664 43.9441 265.03 43.5785 264.957 43.1398C264.883 42.043 264.737 40.9462 264.664 39.8494C264.591 39.4107 264.225 39.0451 263.787 39.1182Z" fill="white"/>
<path d="M265.03 52.1332C264.591 52.2063 264.299 52.5719 264.299 53.0106C264.445 54.1074 264.591 55.2042 264.738 56.3009C264.811 56.7396 265.176 57.0321 265.542 57.0321C265.615 57.0321 265.615 57.0321 265.688 57.0321C266.127 56.959 266.419 56.5934 266.346 56.0816C266.2 54.9848 266.054 53.888 265.907 52.8644C265.907 52.3525 265.542 52.0601 265.03 52.1332Z" fill="white"/>
<path d="M264.372 45.6258C263.933 45.6989 263.567 46.0645 263.641 46.5032C263.787 47.6 263.86 48.6967 264.006 49.7935C264.079 50.2322 264.372 50.5247 264.81 50.5247H264.884C265.322 50.4516 265.615 50.086 265.615 49.6473C265.469 48.5505 265.395 47.4537 265.249 46.4301C265.176 45.9182 264.81 45.5527 264.372 45.6258Z" fill="white"/>
<path d="M277.094 103.024C276.729 103.17 276.509 103.535 276.583 103.901C277.094 103.755 277.606 103.535 278.045 103.389C277.826 103.024 277.46 102.877 277.094 103.024Z" fill="white"/>
<path d="M267.004 65.0752C266.565 65.1483 266.273 65.587 266.346 66.0257C266.565 67.1225 266.711 68.2193 266.931 69.2429C267.004 69.6085 267.369 69.901 267.735 69.901C267.808 69.901 267.808 69.901 267.881 69.901C268.32 69.8279 268.612 69.3891 268.539 68.9504C268.32 67.9268 268.101 66.83 267.954 65.7332C267.881 65.2945 267.442 65.002 267.004 65.0752Z" fill="white"/>
<path d="M265.907 58.6408C265.468 58.714 265.176 59.1527 265.249 59.5914C265.395 60.6881 265.615 61.7849 265.761 62.8086C265.834 63.1742 266.2 63.4666 266.565 63.4666C266.638 63.4666 266.638 63.4666 266.711 63.4666C267.15 63.3935 267.443 62.9548 267.37 62.5161C267.223 61.4193 267.004 60.3957 266.858 59.2989C266.785 58.8602 266.419 58.5677 265.907 58.6408Z" fill="white"/>
<path d="M269.563 77.9439C269.125 78.017 268.832 78.4557 268.978 78.8944C269.198 79.9912 269.49 81.0148 269.783 82.1116C269.856 82.4772 270.221 82.6966 270.587 82.6966C270.66 82.6966 270.733 82.6966 270.806 82.6966C271.245 82.5503 271.538 82.1116 271.391 81.746C271.099 80.7224 270.88 79.6256 270.587 78.6019C270.441 78.0901 270.002 77.7977 269.563 77.9439Z" fill="white"/>
<path d="M263.129 26.0301C262.69 26.0301 262.325 26.3957 262.325 26.8344C262.325 27.9312 262.398 29.0279 262.471 30.1247C262.471 30.5634 262.836 30.929 263.275 30.929C263.714 30.929 264.079 30.5634 264.079 30.0516C264.006 28.9548 264.006 27.8581 263.933 26.7613C263.933 26.3226 263.568 25.957 263.129 26.0301Z" fill="white"/>
<path d="M263.129 11.2604C263.568 11.2604 263.933 10.8947 263.933 10.456C263.933 9.35926 264.006 8.26249 264.006 7.16571C264.006 6.727 263.641 6.36145 263.202 6.28833C262.763 6.28833 262.398 6.6539 262.325 7.09261C262.251 8.18939 262.251 9.28616 262.251 10.3829C262.325 10.8216 262.617 11.2604 263.129 11.2604Z" fill="white"/>
<path d="M268.174 71.5097C267.735 71.5829 267.443 72.0216 267.516 72.4603C267.735 73.5571 267.955 74.5807 268.174 75.6775C268.247 76.0431 268.613 76.3356 268.978 76.3356C269.052 76.3356 269.125 76.3356 269.125 76.3356C269.563 76.2624 269.856 75.8237 269.71 75.385C269.49 74.3614 269.271 73.2646 269.052 72.1678C269.052 71.7291 268.613 71.4366 268.174 71.5097Z" fill="white"/>
<path d="M262.983 17.7675C263.421 17.7675 263.787 17.402 263.787 16.9633C263.787 15.8665 263.787 14.7697 263.787 13.6729C263.787 13.2342 263.421 12.8687 262.983 12.8687C262.544 12.8687 262.178 13.2342 262.178 13.6729C262.178 14.7697 262.178 15.8665 262.178 16.9633C262.178 17.402 262.544 17.7675 262.983 17.7675Z" fill="white"/>
<path d="M263.348 32.5376C262.91 32.5376 262.544 32.9763 262.544 33.415C262.617 34.5118 262.69 35.6086 262.763 36.7053C262.763 37.1441 263.129 37.4365 263.568 37.4365C263.568 37.4365 263.568 37.4365 263.641 37.4365C264.079 37.4365 264.445 36.9978 264.372 36.5591C264.299 35.4623 264.226 34.3656 264.153 33.2688C264.226 32.8301 263.86 32.5376 263.348 32.5376Z" fill="white"/>
<path d="M263.348 4.6794C263.787 4.6794 264.153 4.31379 264.226 3.87508C264.226 3.29013 264.299 2.77831 264.299 2.19336C263.787 2.12025 263.202 2.12024 262.69 2.04712C262.69 2.63207 262.617 3.21703 262.617 3.80198C262.544 4.3138 262.91 4.6794 263.348 4.6794Z" fill="white"/>
<path d="M231.03 56.959C231.469 56.8859 231.761 56.5203 231.688 56.0085C231.542 54.9117 231.396 53.8149 231.249 52.7912C231.176 52.3525 230.811 52.0601 230.372 52.0601C229.933 52.1332 229.641 52.4988 229.641 52.9375C229.787 54.0343 229.933 55.131 230.079 56.2278C230.153 56.6665 230.518 56.959 230.884 56.959C230.957 56.959 231.03 56.959 231.03 56.959Z" fill="white"/>
<path d="M228.617 30.9291C229.129 30.9291 229.421 30.5635 229.421 30.0517C229.348 28.9549 229.348 27.8581 229.275 26.7614C229.275 26.3226 228.909 25.957 228.471 25.957C228.032 25.957 227.666 26.3226 227.666 26.7614C227.666 27.8581 227.739 28.9549 227.813 30.0517C227.813 30.5635 228.178 30.9291 228.617 30.9291Z" fill="white"/>
<path d="M240.243 94.2496C239.95 93.226 239.585 92.2023 239.292 91.1055C239.146 90.6668 238.707 90.4475 238.269 90.5937C237.83 90.7399 237.611 91.1786 237.757 91.6173C238.049 92.641 238.415 93.7378 238.707 94.7615C238.854 95.127 239.146 95.3464 239.512 95.3464C239.585 95.3464 239.658 95.3464 239.731 95.2732C240.17 95.127 240.389 94.6883 240.243 94.2496Z" fill="white"/>
<path d="M241.266 97.3934C241.12 96.9547 240.681 96.7353 240.243 96.8815C239.804 97.0278 239.585 97.4665 239.731 97.9052C240.096 98.9289 240.462 100.026 240.828 101.049C240.974 101.415 241.266 101.561 241.559 101.561C241.632 101.561 241.705 101.561 241.851 101.488C242.29 101.342 242.509 100.903 242.363 100.464C241.998 99.4407 241.632 98.417 241.266 97.3934Z" fill="white"/>
<path d="M228.398 24.3481C228.836 24.3481 229.202 23.9825 229.202 23.5438C229.202 22.4471 229.202 21.3503 229.129 20.2535C229.129 19.8148 228.763 19.4492 228.324 19.4492C227.886 19.4492 227.52 19.8148 227.52 20.2535C227.52 21.3503 227.52 22.4471 227.593 23.5438C227.593 23.9825 227.959 24.3481 228.398 24.3481Z" fill="white"/>
<path d="M242.437 103.024C242.144 103.17 241.925 103.389 241.925 103.682C242.583 103.901 243.168 104.12 243.826 104.34C243.753 104.047 243.606 103.755 243.533 103.462C243.314 103.097 242.802 102.877 242.437 103.024Z" fill="white"/>
<path d="M228.324 17.7675C228.763 17.7675 229.129 17.402 229.129 16.9633C229.129 15.8665 229.129 14.7697 229.129 13.6729C229.129 13.2342 228.763 12.8687 228.324 12.8687C227.886 12.8687 227.52 13.2342 227.52 13.6729C227.52 14.7697 227.52 15.8665 227.52 16.9633C227.52 17.402 227.886 17.7675 228.324 17.7675Z" fill="white"/>
<path d="M238.415 88.0344C238.123 87.0108 237.83 85.914 237.538 84.8903C237.391 84.4516 236.953 84.2322 236.514 84.3054C236.075 84.4516 235.856 84.8903 235.929 85.329C236.221 86.3527 236.514 87.4495 236.806 88.4731C236.88 88.8387 237.245 89.058 237.611 89.058C237.684 89.058 237.757 89.058 237.83 89.058C238.269 88.9118 238.488 88.4731 238.415 88.0344Z" fill="white"/>
<path d="M229.494 43.9442C229.933 43.8711 230.299 43.5055 230.226 43.0668C230.153 41.97 230.006 40.8732 229.933 39.7764C229.933 39.3377 229.494 38.9721 229.056 39.0453C228.617 39.0453 228.251 39.484 228.325 39.9227C228.398 41.0195 228.471 42.1162 228.617 43.213C228.69 43.6517 229.056 43.9442 229.494 43.9442Z" fill="white"/>
<path d="M230.226 50.5246C230.664 50.4515 230.957 50.0859 230.957 49.6472C230.81 48.5504 230.737 47.4537 230.591 46.43C230.518 45.9913 230.152 45.6257 229.714 45.6988C229.275 45.7719 228.909 46.1375 228.983 46.5762C229.129 47.673 229.202 48.7698 229.348 49.8666C229.421 50.3053 229.714 50.5977 230.152 50.5977C230.152 50.5246 230.152 50.5246 230.226 50.5246Z" fill="white"/>
<path d="M228.983 37.4364C229.494 37.4364 229.86 36.9977 229.787 36.559C229.714 35.4622 229.641 34.3654 229.567 33.2686C229.567 32.8299 229.129 32.4644 228.69 32.4644C228.251 32.4644 227.886 32.9031 227.886 33.3418C227.959 34.4386 228.032 35.5353 228.105 36.6321C228.178 37.1439 228.544 37.4364 228.983 37.4364Z" fill="white"/>
<path d="M232.054 63.4666C232.493 63.3935 232.785 62.9548 232.712 62.5161C232.566 61.4193 232.346 60.3957 232.2 59.2989C232.127 58.8602 231.688 58.5677 231.25 58.6408C230.811 58.714 230.518 59.1527 230.592 59.5914C230.738 60.6881 230.957 61.7849 231.103 62.8086C231.176 63.1742 231.542 63.4666 231.908 63.4666C231.981 63.4666 231.981 63.4666 232.054 63.4666Z" fill="white"/>
<path d="M234.54 76.3356C234.978 76.2624 235.271 75.8237 235.125 75.385C234.905 74.3614 234.686 73.2646 234.466 72.1678C234.393 71.7291 233.955 71.4366 233.516 71.5097C233.077 71.5829 232.785 72.0216 232.858 72.4603C233.077 73.5571 233.297 74.5807 233.516 75.6775C233.589 76.0431 233.955 76.3356 234.32 76.3356C234.466 76.3356 234.54 76.3356 234.54 76.3356Z" fill="white"/>
<path d="M233.224 69.901C233.662 69.8279 233.955 69.3891 233.882 68.9504C233.662 67.9268 233.443 66.83 233.297 65.7332C233.224 65.2945 232.785 65.002 232.346 65.0752C231.907 65.1483 231.615 65.587 231.688 66.0257C231.907 67.1225 232.054 68.2193 232.273 69.2429C232.346 69.6085 232.712 69.901 233.077 69.901C233.15 69.901 233.15 69.901 233.224 69.901Z" fill="white"/>
<path d="M236.66 81.6731C236.367 80.6494 236.148 79.5526 235.856 78.529C235.783 78.0903 235.344 77.7978 234.905 77.944C234.466 78.0172 234.174 78.4559 234.32 78.8946C234.54 79.9914 234.832 81.015 235.124 82.1118C235.198 82.4773 235.563 82.6967 235.929 82.6967C236.002 82.6967 236.075 82.6967 236.148 82.6967C236.514 82.5505 236.806 82.1118 236.66 81.6731Z" fill="white"/>
<path d="M60.7354 451H463.755L491 513L463.755 575H60.7354L32.9999 513L60.7354 451Z" fill="#043365"/>
<path d="M50.2311 513.5L72.1679 464H453.123L474.611 513.5L453.123 563H72.1679L50.2311 513.5Z" fill="#043365" stroke="#F15C2E" stroke-width="4"/>
<path d="M141.328 521.93L148.148 523.652C146.719 529.254 144.141 533.531 140.414 536.484C136.711 539.414 132.176 540.879 126.808 540.879C121.254 540.879 116.73 539.754 113.238 537.504C109.769 535.23 107.121 531.949 105.293 527.66C103.488 523.371 102.586 518.766 102.586 513.844C102.586 508.477 103.605 503.801 105.644 499.816C107.707 495.809 110.625 492.773 114.398 490.711C118.195 488.625 122.367 487.582 126.914 487.582C132.07 487.582 136.406 488.895 139.922 491.52C143.437 494.145 145.887 497.836 147.269 502.594L140.555 504.176C139.359 500.426 137.625 497.695 135.351 495.984C133.078 494.273 130.219 493.418 126.773 493.418C122.812 493.418 119.496 494.367 116.824 496.266C114.176 498.164 112.312 500.719 111.234 503.93C110.156 507.117 109.617 510.41 109.617 513.809C109.617 518.191 110.25 522.023 111.516 525.305C112.805 528.562 114.797 531 117.492 532.617C120.187 534.234 123.105 535.043 126.246 535.043C130.066 535.043 133.301 533.941 135.949 531.738C138.598 529.535 140.391 526.266 141.328 521.93ZM156.691 540V488.461H179.543C184.137 488.461 187.629 488.93 190.019 489.867C192.41 490.781 194.32 492.41 195.75 494.754C197.18 497.098 197.894 499.688 197.894 502.523C197.894 506.18 196.711 509.262 194.344 511.77C191.976 514.277 188.32 515.871 183.375 516.551C185.18 517.418 186.551 518.273 187.488 519.117C189.48 520.945 191.367 523.23 193.148 525.973L202.113 540H193.535L186.715 529.277C184.723 526.184 183.082 523.816 181.793 522.176C180.504 520.535 179.344 519.387 178.312 518.73C177.305 518.074 176.273 517.617 175.219 517.359C174.445 517.195 173.18 517.113 171.422 517.113H163.512V540H156.691ZM163.512 511.207H178.172C181.289 511.207 183.726 510.891 185.484 510.258C187.242 509.602 188.578 508.57 189.492 507.164C190.406 505.734 190.863 504.188 190.863 502.523C190.863 500.086 189.973 498.082 188.191 496.512C186.433 494.941 183.644 494.156 179.824 494.156H163.512V511.207ZM209.777 540V488.461H216.598V540H209.777ZM265.43 521.93L272.25 523.652C270.82 529.254 268.242 533.531 264.516 536.484C260.812 539.414 256.277 540.879 250.91 540.879C245.355 540.879 240.832 539.754 237.34 537.504C233.871 535.23 231.223 531.949 229.394 527.66C227.59 523.371 226.687 518.766 226.687 513.844C226.687 508.477 227.707 503.801 229.746 499.816C231.808 495.809 234.726 492.773 238.5 490.711C242.297 488.625 246.469 487.582 251.016 487.582C256.172 487.582 260.508 488.895 264.023 491.52C267.539 494.145 269.988 497.836 271.371 502.594L264.656 504.176C263.461 500.426 261.726 497.695 259.453 495.984C257.18 494.273 254.32 493.418 250.875 493.418C246.914 493.418 243.598 494.367 240.926 496.266C238.277 498.164 236.414 500.719 235.336 503.93C234.258 507.117 233.719 510.41 233.719 513.809C233.719 518.191 234.351 522.023 235.617 525.305C236.906 528.562 238.898 531 241.594 532.617C244.289 534.234 247.207 535.043 250.348 535.043C254.168 535.043 257.402 533.941 260.051 531.738C262.699 529.535 264.492 526.266 265.43 521.93ZM280.406 540V488.461H287.226V514.02L312.82 488.461H322.066L300.445 509.344L323.016 540H314.016L295.664 513.914L287.226 522.141V540H280.406ZM328.851 540V488.461H366.117V494.543H335.672V510.328H364.183V516.375H335.672V533.918H367.312V540H328.851ZM389.848 540V494.543H372.867V488.461H413.719V494.543H396.668V540H389.848Z" fill="white"/>
<path d="M107.606 616V591.861H112.52V611.899H124.739V616H107.606ZM160.899 616V591.662H178.945V595.779H165.813V601.175H178.031V605.275H165.813V611.899H179.409V616H160.899ZM238.164 616H232.818L230.693 610.472H220.964L218.956 616H213.743L223.222 591.662H228.419L238.164 616ZM229.116 606.371L225.762 597.34L222.475 606.371H229.116ZM284.749 607.052V602.951H295.341V612.646C294.311 613.643 292.817 614.522 290.858 615.286C288.91 616.039 286.935 616.415 284.932 616.415C282.386 616.415 280.167 615.884 278.274 614.821C276.382 613.748 274.96 612.22 274.008 610.239C273.056 608.247 272.58 606.083 272.58 603.748C272.58 601.214 273.111 598.961 274.174 596.991C275.236 595.021 276.791 593.51 278.839 592.459C280.399 591.651 282.342 591.247 284.666 591.247C287.687 591.247 290.045 591.883 291.738 593.156C293.443 594.418 294.538 596.167 295.025 598.402L290.144 599.315C289.801 598.12 289.154 597.179 288.202 596.493C287.261 595.796 286.083 595.447 284.666 595.447C282.519 595.447 280.809 596.128 279.536 597.489C278.274 598.851 277.644 600.87 277.644 603.549C277.644 606.438 278.285 608.607 279.569 610.057C280.853 611.495 282.535 612.215 284.616 612.215C285.645 612.215 286.675 612.016 287.704 611.617C288.744 611.208 289.635 610.715 290.377 610.14V607.052H284.749ZM332.496 591.662H337.41V604.844C337.41 606.936 337.471 608.291 337.593 608.911C337.803 609.907 338.301 610.71 339.087 611.318C339.884 611.916 340.969 612.215 342.341 612.215C343.736 612.215 344.787 611.933 345.495 611.368C346.204 610.793 346.63 610.09 346.774 609.26C346.918 608.43 346.99 607.052 346.99 605.126V591.662H351.904V604.445C351.904 607.367 351.771 609.431 351.505 610.638C351.24 611.844 350.747 612.862 350.028 613.692C349.319 614.522 348.367 615.187 347.172 615.685C345.977 616.172 344.416 616.415 342.491 616.415C340.166 616.415 338.401 616.149 337.195 615.618C335.999 615.076 335.053 614.379 334.356 613.526C333.659 612.663 333.199 611.761 332.978 610.82C332.657 609.426 332.496 607.367 332.496 604.645V591.662ZM389.74 616V591.662H407.786V595.779H394.654V601.175H406.873V605.275H394.654V611.899H408.251V616H389.74Z" fill="#043365"/>
<path d="M111.5 248.096V251.596H115H125.342H128.842V248.096V196.874V193.374H125.342H115H111.5V196.874V248.096ZM135.422 248.096V251.596H138.922H148.531H152.031V248.096V227.011L166.204 249.937L167.23 251.596H169.181H179.558H183.058V248.096V196.874V193.374H179.558H169.95H166.45V196.874V218.672L151.969 195.045L150.945 193.374H148.985H138.922H135.422V196.874V248.096ZM226.949 225.927L223.33 224.78L222.48 228.48C221.71 231.829 220.545 233.798 219.313 234.885C218 236.043 216.469 236.63 214.535 236.63C211.796 236.63 209.759 235.678 208.121 233.744C206.614 231.966 205.457 228.408 205.457 222.171C205.457 216.378 206.599 212.999 208.13 211.221C209.803 209.305 211.905 208.34 214.745 208.34C216.798 208.34 218.326 208.896 219.539 209.873L219.547 209.879L219.555 209.886C220.801 210.877 221.681 212.248 222.129 214.214L222.916 217.661L226.355 216.84L236.592 214.394L240.144 213.545L239.146 210.033C237.865 205.523 235.857 201.754 232.939 199.009C228.271 194.594 222.271 192.5 215.269 192.5C207.243 192.5 200.486 195.185 195.345 200.705C190.163 206.245 187.8 213.822 187.8 222.939C187.8 231.648 190.181 238.949 195.318 244.414L195.324 244.42C200.412 249.806 206.947 252.47 214.64 252.47C220.722 252.47 226.046 250.967 230.347 247.706L230.349 247.704C234.704 244.395 237.611 239.488 239.294 233.371L240.186 230.124L236.977 229.107L226.949 225.927ZM246.916 248.096V251.596H250.416H289.375H292.875V248.096V239.466V235.966H289.375H264.258V229.025H286.475H289.975V225.525V216.894V213.394H286.475H264.258V209.039H288.396H291.896V205.539V196.874V193.374H288.396H250.416H246.916V196.874V248.096ZM301.697 193.374H298.197V196.874V248.096V251.596H301.697H321.159C325.151 251.596 328.603 251.225 331.369 250.35L331.382 250.346C334.807 249.248 337.745 247.65 340.018 245.437C342.857 242.681 344.95 239.162 346.376 235.013L346.377 235.013C347.582 231.503 348.139 227.465 348.139 222.974C348.139 217.932 347.555 213.494 346.275 209.757C345.013 206.05 343.137 202.826 340.609 200.16C338.04 197.451 334.93 195.553 331.337 194.494L331.328 194.492C328.612 193.7 324.968 193.374 320.6 193.374H301.697ZM325.167 235.581L325.159 235.583L325.152 235.585C324.326 235.795 322.618 235.966 319.761 235.966H315.539V209.039H316.686C320.954 209.039 323.401 209.215 324.406 209.442L324.421 209.445L324.435 209.448C325.836 209.752 326.83 210.293 327.561 210.983C328.291 211.673 329.007 212.773 329.575 214.496C330.1 216.089 330.447 218.691 330.447 222.52C330.447 226.323 330.106 229.065 329.551 230.899C328.939 232.896 328.278 233.844 327.838 234.239L327.824 234.251L327.811 234.263C327.211 234.812 326.373 235.28 325.167 235.581ZM357.079 208.235L357.076 208.243L357.073 208.25C355.26 212.362 354.434 217.256 354.434 222.799C354.434 231.613 356.882 238.978 362.159 244.447L362.166 244.454C367.438 249.89 374.467 252.47 382.847 252.47C391.153 252.47 398.132 249.866 403.395 244.412L403.401 244.406C408.681 238.907 411.12 231.47 411.12 222.555C411.12 213.572 408.659 206.092 403.322 200.59C398.038 195.116 391.038 192.5 382.707 192.5C378.165 192.5 374.009 193.236 370.309 194.8C367.433 196.003 364.839 197.824 362.525 200.192L362.518 200.199L362.51 200.207C360.227 202.57 358.412 205.251 357.079 208.235ZM390.331 233.365L390.33 233.366C388.393 235.544 385.983 236.63 382.812 236.63C379.653 236.63 377.211 235.539 375.218 233.324C373.321 231.193 372.091 227.762 372.091 222.45C372.091 216.994 373.309 213.59 375.111 211.578L375.121 211.568C377.004 209.449 379.453 208.34 382.812 208.34C386.19 208.34 388.607 209.439 390.432 211.495L390.437 211.501L390.442 211.507C392.22 213.493 393.428 216.873 393.428 222.31C393.428 227.8 392.193 231.275 390.331 233.365Z" fill="black" stroke="black" stroke-width="7"/>
<path d="M115 247.146V198.824H124.757V247.146H115Z" fill="white"/>
<path d="M140.284 247.146V198.824H149.777L169.554 231.094V198.824H178.619V247.146H168.829L149.349 215.635V247.146H140.284Z" fill="white"/>
<path d="M224.988 228.38L234.448 231.379C232.997 236.653 230.58 240.575 227.196 243.146C223.834 245.695 219.56 246.97 214.374 246.97C207.957 246.97 202.683 244.784 198.552 240.411C194.421 236.016 192.355 230.017 192.355 222.414C192.355 214.371 194.432 208.13 198.585 203.691C202.738 199.23 208.199 197 214.967 197C220.878 197 225.68 198.747 229.371 202.241C231.569 204.307 233.217 207.273 234.316 211.141L224.658 213.448C224.087 210.943 222.889 208.965 221.065 207.515C219.263 206.064 217.066 205.339 214.473 205.339C210.891 205.339 207.979 206.625 205.738 209.196C203.518 211.767 202.409 215.931 202.409 221.688C202.409 227.797 203.508 232.148 205.705 234.741C207.902 237.334 210.759 238.631 214.275 238.631C216.868 238.631 219.098 237.807 220.966 236.159C222.834 234.51 224.175 231.917 224.988 228.38Z" fill="white"/>
<path d="M250.954 247.146V198.824H286.783V206.999H260.71V217.711H284.97V225.853H260.71V239.004H287.706V247.146H250.954Z" fill="white"/>
<path d="M303.047 198.824H320.879C324.901 198.824 327.966 199.132 330.076 199.747C332.91 200.582 335.338 202.065 337.36 204.197C339.382 206.328 340.92 208.943 341.975 212.042C343.03 215.118 343.557 218.92 343.557 223.446C343.557 227.424 343.063 230.852 342.074 233.731C340.865 237.246 339.14 240.092 336.899 242.268C335.207 243.916 332.921 245.201 330.043 246.124C327.889 246.805 325.01 247.146 321.407 247.146H303.047V198.824ZM312.804 206.999V239.004H320.088C322.813 239.004 324.78 238.851 325.988 238.543C327.571 238.147 328.878 237.477 329.911 236.532C330.966 235.587 331.823 234.038 332.482 231.885C333.141 229.709 333.471 226.754 333.471 223.018C333.471 219.282 333.141 216.415 332.482 214.415C331.823 212.415 330.9 210.855 329.713 209.734C328.526 208.614 327.021 207.856 325.197 207.46C323.835 207.152 321.165 206.999 317.188 206.999H312.804Z" fill="white"/>
<path d="M359.986 223.282C359.986 218.359 360.722 214.228 362.195 210.888C363.293 208.427 364.788 206.218 366.678 204.263C368.589 202.307 370.677 200.857 372.94 199.912C375.951 198.637 379.423 198 383.356 198C390.476 198 396.167 200.208 400.43 204.625C404.715 209.042 406.858 215.184 406.858 223.051C406.858 230.852 404.737 236.961 400.496 241.378C396.255 245.773 390.586 247.97 383.488 247.97C376.302 247.97 370.589 245.784 366.348 241.411C362.107 237.016 359.986 230.973 359.986 223.282ZM370.04 222.952C370.04 228.424 371.303 232.577 373.83 235.412C376.357 238.224 379.566 239.631 383.455 239.631C387.345 239.631 390.531 238.235 393.014 235.445C395.519 232.632 396.772 228.424 396.772 222.82C396.772 217.283 395.552 213.151 393.113 210.427C390.696 207.702 387.476 206.339 383.455 206.339C379.434 206.339 376.192 207.724 373.731 210.493C371.27 213.239 370.04 217.392 370.04 222.952Z" fill="white"/>
<circle cx="446" cy="515" r="5" fill="white"/>
<circle cx="77.9999" cy="515" r="5" fill="white"/>
</g>
<defs>
<clipPath id="clip0_3_937">
<rect width="518.511" height="624" fill="white"/>
</clipPath>
</defs>
</svg>
